<?xml version="1.0" standalone="no"?>
<!DOCTYPE svg PUBLIC "-//W3C//DTD SVG 20010904//EN"
 "http://www.w3.org/TR/2001/REC-SVG-20010904/DTD/svg10.dtd">
<svg version="1.0" xmlns="http://www.w3.org/2000/svg"
 width="1280.000000pt" height="1280.000000pt" viewBox="0 0 1280.000000 1280.000000"
 preserveAspectRatio="xMidYMid meet">

<g transform="translate(0.000000,1280.000000) scale(0.100000,-0.100000)"
fill="#000000" stroke="none">
<path d="M3285 9101 c-60 -25 -102 -108 -89 -176 8 -44 37 -75 214 -228 80
-69 174 -153 210 -185 36 -33 66 -59 68 -58 1 2 -7 24 -18 49 -20 44 -90 238
-151 417 -36 105 -59 144 -101 170 -34 21 -96 25 -133 11z"/>
<path d="M4990 8735 c-470 -64 -912 -307 -1212 -664 -393 -470 -543 -1053
-423 -1646 210 -1041 1248 -1721 2294 -1504 268 55 568 198 793 377 l78 62
166 -163 166 -163 -11 -57 c-10 -47 -10 -67 4 -118 20 -82 40 -111 127 -194
40 -38 271 -263 513 -500 514 -503 497 -490 660 -490 85 0 106 4 144 24 160
85 233 263 177 431 -16 50 -35 72 -198 231 l-181 177 194 4 c167 4 207 9 291
31 424 113 738 463 803 897 93 608 -278 1163 -865 1295 -58 13 -156 19 -430
25 -361 8 -410 13 -535 55 -141 48 -284 156 -364 276 -23 34 -50 93 -61 132
-75 259 -167 468 -280 637 -313 465 -806 773 -1356 845 -137 18 -362 18 -494
0z m550 -404 c133 -27 235 -62 375 -130 417 -202 713 -582 827 -1061 19 -84
22 -122 22 -320 0 -208 -2 -233 -26 -335 -97 -410 -322 -738 -660 -962 -450
-297 -1019 -333 -1498 -93 -373 187 -667 520 -794 900 -55 167 -70 269 -71
490 0 224 9 287 67 469 124 391 410 721 783 906 172 85 315 130 495 155 103
14 371 4 480 -19z m2852 -2250 c43 -85 79 -155 81 -157 1 -2 76 -14 166 -28
89 -13 169 -30 177 -36 33 -28 16 -57 -101 -171 -133 -130 -127 -110 -95 -304
26 -154 25 -171 -2 -186 -19 -10 -41 -2 -178 69 l-156 80 -139 -74 c-168 -89
-198 -93 -203 -28 -2 22 6 95 18 161 11 66 20 131 20 145 0 19 -30 54 -120
142 -66 64 -120 123 -120 131 0 28 46 44 196 69 84 14 155 26 158 26 4 0 36
60 71 133 96 197 91 189 122 185 25 -3 36 -19 105 -157z"/>
<path d="M4945 8134 c-11 -3 -58 -14 -105 -26 -326 -79 -625 -330 -790 -663
-108 -218 -146 -398 -137 -659 8 -238 44 -386 145 -580 89 -172 235 -342 402
-465 186 -139 378 -201 614 -201 186 0 256 34 256 124 0 70 -41 107 -130 120
-128 19 -270 61 -365 109 -205 102 -403 307 -496 514 -121 270 -125 573 -12
837 135 317 444 558 798 626 157 30 178 37 206 66 31 33 33 101 4 134 -42 48
-100 64 -240 66 -71 2 -139 1 -150 -2z m-29 -154 c13 -35 22 -65 21 -66 -5 -5
-131 -54 -138 -54 -10 0 -61 131 -54 138 13 14 111 51 129 49 13 -1 25 -21 42
-67z m-293 -125 c20 -30 37 -59 37 -63 0 -10 -96 -82 -109 -82 -12 0 -92 101
-89 111 3 9 109 89 118 89 3 0 22 -25 43 -55z m-223 -217 l43 -37 -48 -58
c-27 -32 -50 -60 -52 -62 -3 -5 -39 20 -86 62 l-38 33 52 62 c58 68 49 68 129
0z m-197 -254 c29 -15 54 -28 56 -30 3 -3 -46 -130 -56 -143 -3 -5 -133 51
-138 60 -8 13 56 139 71 139 8 0 38 -12 67 -26z m-50 -310 c11 -4 16 -12 12
-27 -2 -12 -9 -48 -15 -80 -9 -47 -15 -57 -28 -53 -9 3 -38 8 -63 11 -71 10
-73 13 -59 81 18 92 13 87 78 80 31 -4 65 -9 75 -12z m-9 -321 c2 -10 8 -46
11 -79 l7 -62 -72 -7 c-39 -4 -73 -5 -76 -2 -8 8 -25 129 -20 143 4 11 32 17
118 22 18 1 28 -4 32 -15z m88 -350 c15 -37 25 -70 20 -73 -4 -4 -35 -18 -68
-33 l-62 -25 -31 70 c-17 39 -29 73 -26 76 10 11 130 61 134 56 2 -2 17 -34
33 -71z m153 -264 c26 -33 46 -61 44 -63 -2 -1 -27 -21 -55 -44 -29 -23 -56
-42 -60 -41 -11 0 -94 105 -94 118 0 10 97 91 110 91 4 0 28 -27 55 -61z m267
-263 c-4 -7 -25 -35 -46 -63 l-39 -52 -26 19 c-14 10 -42 32 -61 48 -32 27
-34 31 -22 54 7 13 29 40 48 60 l35 37 59 -46 c36 -28 57 -50 52 -57z"/>
<path d="M4865 7390 c-27 -11 -61 -49 -74 -83 -14 -37 -15 -918 -1 -968 15
-54 51 -82 112 -86 51 -4 58 -2 198 79 409 236 663 394 681 423 24 39 24 99 0
139 -19 31 -47 48 -662 408 -168 98 -202 110 -254 88z"/>
<path d="M3052 8360 c-34 -21 -62 -71 -62 -111 0 -35 31 -89 61 -104 43 -23
80 -18 268 34 l174 48 -58 22 c-33 12 -117 47 -187 77 -70 30 -135 54 -145 54
-10 0 -33 -9 -51 -20z"/>
</g>
</svg>
